<?xml version="1.0" encoding="UTF-8"?>
<svg id="Layer_1" xmlns="http://www.w3.org/2000/svg" version="1.1" viewBox="0 0 1920 532">
  <!-- Generator: Adobe Illustrator 30.2.1, SVG Export Plug-In . SVG Version: 2.1.1 Build 1)  -->
  <defs>
    <style>
      .st0 {
        fill: #606974;
      }

      .st1 {
        fill: #a7b3c9;
      }

      .st2 {
        fill: #eeecef;
      }

      .st3 {
        fill: #6e849e;
      }

      .st4 {
        fill: #8193ab;
      }

      .st5 {
        fill: #cdc8dc;
      }

      .st6 {
        fill: #7d7253;
      }

      .st7 {
        fill: #775639;
      }

      .st8 {
        fill: #3c3d49;
      }

      .st9 {
        fill: #62768b;
      }

      .st10 {
        fill: #303142;
      }

      .st11 {
        fill: #d4ad85;
      }

      .st12 {
        fill: #adb6bd;
      }

      .st13 {
        fill: #282926;
      }

      .st14 {
        fill: #b3b8bb;
      }

      .st15 {
        fill: #8195a2;
      }

      .st16 {
        fill: #d1cab3;
      }

      .st17 {
        fill: #d2d4da;
      }

      .st18 {
        fill: #eee9e9;
      }

      .st19 {
        fill: #a3baca;
      }

      .st20 {
        fill: #b2b8cd;
      }

      .st21 {
        fill: #bfbbc2;
      }

      .st22 {
        fill: #2c324d;
      }

      .st23 {
        fill: #959eb1;
      }

      .st24 {
        fill: #fef7ef;
      }

      .st25 {
        fill: #e8e4e2;
      }

      .st26 {
        fill: #d8d7da;
      }

      .st27 {
        fill: #d9dedf;
      }

      .st28 {
        fill: #d9d9e6;
      }

      .st29 {
        fill: #343d53;
      }

      .st30 {
        fill: #666d82;
      }

      .st31 {
        fill: #ecdda3;
      }

      .st32 {
        fill: #9fb1ba;
      }

      .st33 {
        fill: #e0dce4;
      }

      .st34 {
        fill: #758193;
      }

      .st35 {
        fill: #b4c0d3;
      }

      .st36 {
        fill: #f7f1e5;
      }

      .st37 {
        fill: #ede9e5;
      }

      .st38 {
        fill: #e0e1de;
      }

      .st39 {
        fill: #536880;
      }

      .st40 {
        fill: #c4c6ce;
      }

      .st41 {
        fill: #93a7b8;
      }

      .st42 {
        fill: #737978;
      }

      .st43 {
        fill: #f0eee7;
      }

      .st44 {
        fill: #49546e;
      }

      .st45 {
        fill: #839aae;
      }

      .st46 {
        fill: #acadaf;
      }

      .st47 {
        fill: #c9c2a3;
      }

      .st48 {
        fill: #3d475a;
      }

      .st49 {
        fill: #c7ced4;
      }

      .st50 {
        fill: #a8a888;
      }

      .st51 {
        fill: #989fc1;
      }

      .st52 {
        fill: #7385a4;
      }

      .st53 {
        fill: #5d5e5e;
      }

      .st54 {
        fill: #b2b09a;
      }
    </style>
  </defs>
  <path class="st14" d="M1221.5,533c-.5-17-.5-34-.5-51.5,0-.5,0-.4.5-.5,20.1,0,39.8,0,59.5,0,0,0,0,0,0,0,0,17,0,34,0,51.5-19.7.5-39.4.5-59.5.5Z"/>
  <path class="st43" d="M1401.1,420.9c-19.7,0-39.4,0-60.1,0-20.6,0-40.3,0-60.5,0-20.2,0-39.9,0-60,0-20.2,0-39.8,0-59.5-.5,0-20.2,0-39.9.5-59.6,20.2,0,39.9,0,60,0,20.1,0,39.8,0,59.9,0,18.2,0,36,0,53.8.1,4.4,0,6-.9,5.9-5.7-.3-18.1-.1-36.2.4-54.3,20.2,0,39.9.1,59.6.7,0,20.1,0,39.7,0,59.8,0,20.1,0,39.8,0,59.4Z"/>
  <path class="st24" d="M741.1,361c-19.7,0-39.4,0-59.6-.5-.5-20.1-.5-39.8-.5-59.5,0,0,0,0,.6,0,20.1,0,39.8,0,59.9,0,20.2,0,39.8,0,60,0,20.2,0,39.9.1,59.6.7,0,20.1,0,39.8,0,59.4,0,0,0,0-.4,0-20.2,0-39.9,0-60,0-20.1,0-39.8,0-59.4,0Z"/>
  <path class="st18" d="M1161,361c0,19.7,0,39.4,0,59.6,0,.5,0,.5-.5.5-18.4,0-36.3.1-54.3,0-4.1,0-5.4,1-5.4,5.2.2,18.3.1,36.5.1,54.8-19.7,0-39.4,0-59.6-.4-.5-20.2-.5-39.8-.5-60,0-20.2,0-39.8.5-59.5,20.1,0,39.8,0,60,0,20.2,0,39.9,0,59.6,0,0,0,0,0,0,0Z"/>
  <path class="st12" d="M620.9,360.9c-19.6,0-39.3,0-59.8,0-20.6,0-40.3,0-59.9,0,0-19.7,0-39.5.4-59.6,20.2-.4,39.8-.4,59.5-.4,19.7,0,39.3,0,59.5.5.5,20.1.4,39.8.4,59.4Z"/>
  <path class="st30" d="M1580.8,300.9v60.1c-19.7,0-39.3,0-59.3,0-.4,0-.4-.2-.4-.6,0-20,0-39.6-.1-59.3,0,0,0-.3.4-.2,20.1,0,39.8.1,59.4.1Z"/>
  <path class="st7" d="M861,120.9h-59.7v-59.6h59.7c0,19.6,0,39.2,0,59.2,0,.5,0,.4,0,.4Z"/>
  <path class="st43" d="M621.4,361c-.5-19.7-.4-39.3-.4-59.4,19.7-.5,39.4-.5,59.5-.5.5,19.7.5,39.4.5,59.5-19.7.5-39.4.5-59.6.4Z"/>
  <path class="st38" d="M1281,421c19.7,0,39.4,0,59.5,0,.5,18.3.3,36.6.6,54.8,0,4.2-1.3,5.3-5.4,5.2-17.9-.2-35.9,0-54.3,0-.5,0-.4,0-.4-.4,0-20.2,0-39.9,0-59.6Z"/>
  <path class="st25" d="M1041,421c0,19.7,0,39.4,0,59.5-19.7.5-39.4.5-59.5,0-.5-20.2-.5-39.8,0-59.5,20.2,0,39.8,0,59.5,0Z"/>
  <path class="st23" d="M501.1,361.5c19.7-.5,39.4-.5,59.5-.5.5,19.8.5,39.5.5,60-20,0-39.6,0-59.6,0-.4,0-.4,0-.4,0,0-19.7,0-39.4,0-59.5Z"/>
  <path class="st31" d="M741,361.5c19.7-.5,39.3-.5,59.5,0,.5,20.2.5,39.9.5,59.5,0,0,0,0,0,0h-60c0-20,0-39.5,0-59.5Z"/>
  <path class="st5" d="M921,421c-19.7,0-39.4,0-59.5,0-.5,0-.5,0-.5-.4,0-20.2,0-39.9,0-59.6,0,0,0,0,.4,0,20.2,0,39.8,0,59.5.5,0,20.1,0,39.8,0,59.5,0,0,0,0,0,0Z"/>
  <path class="st26" d="M1161,421c19.7,0,39.4,0,59.5.5.5,20.2.5,39.9.5,59.6,0,0,0,0,0,0-19.7,0-39.4,0-59.5-.5-.5-20.1-.5-39.8-.5-59.5,0,0,0,0,0,0Z"/>
  <path class="st21" d="M1401.5,421c-.5-19.7-.5-39.3,0-59.5,20.2-.5,39.8-.5,59.5,0,0,20.1,0,39.8,0,59.5-19.6,0-39.3,0-59.4,0Z"/>
  <path class="st26" d="M1461.4,420.9c-.5-19.7-.4-39.4-.4-59.5,0-.5,0-.4.4-.4,20.2,0,40-.1,59.7-.2,0,0,0,.2,0,.2,0,19.8,0,39.5,0,59.9-20,0-39.6,0-59.6,0Z"/>
  <path class="st34" d="M501,421c0,19.8,0,39.6,0,59.7h-59.5v-59.7c19.5,0,39.1,0,59.1,0,.5,0,.5,0,.4,0Z"/>
  <path class="st14" d="M861,421c0,19.8,0,39.5,0,59.6h-60c0-19.6,0-39.2,0-59.2,0-.5,0-.4.5-.4,20.2,0,39.8,0,59.5,0,0,0,0,0,0,0Z"/>
  <path class="st38" d="M1160.5,421c.5,19.7.5,39.3.5,59.5-19.7.5-39.4.5-59.5.5-.5-18.3-.4-36.5-.6-54.8,0-4.2,1.3-5.3,5.4-5.2,17.9.2,35.9,0,54.3,0Z"/>
  <path class="st17" d="M981,421c0,19.7,0,39.3,0,59.5-19.7.5-39.5.5-60,.5,0-19.9,0-39.5,0-59.5,0-.5,0-.5.5-.5,20.2,0,39.8,0,59.5,0,0,0,0,0,0,0Z"/>
  <path class="st44" d="M501.1,241h-59.7v-59.7h59.7c0,19.6,0,39.2,0,59.3,0,.5,0,.4,0,.4Z"/>
  <path class="st41" d="M1281,180.8c19.7,0,39.4.1,59.5.7.4,20.1.5,39.7.5,59.4,0,0,0,.2-.5.2-20.1,0-39.8,0-59.5-.6,0-20.1,0-39.7,0-59.4,0,0,0-.3,0-.3Z"/>
  <path class="st45" d="M921,181c19.7,0,39.4,0,59.5,0,.4,0,.4.2.5.6,0,20.1,0,39.7-.4,59.4-20.2,0-39.9,0-59.6-.5,0-20.1,0-39.8,0-59.4Z"/>
  <path class="st44" d="M921,181c0,19.7,0,39.3,0,59.5,0,.5,0,.5-.4.5-20.1,0-39.8-.1-59.5-.2,0,0,0,.1,0,.1,0-19.7,0-39.3.5-59.5,20.2-.5,39.8-.5,59.4-.6,0,0,0,0,0,0Z"/>
  <path class="st22" d="M1461,241c19.7,0,39.4,0,59.5.6.4,20.1.4,39.6.4,59.2,0,0,0,.2-.4.2-20.1,0-39.8,0-59.5,0,0,0,0,0,0-.5,0-20.1,0-39.8,0-59.5,0,0,0,0,0,0Z"/>
  <path class="st47" d="M1280.9,120.9c0,19.7.1,39.3.2,59.4,0,.5,0,.6-.5.7-20.2,0-39.8,0-59.5-.5,0-20.2,0-39.9,0-59.6,0,0,0,0,.4,0,20.1,0,39.8,0,59.4,0Z"/>
  <path class="st48" d="M1220.5,121c.5,19.7.5,39.4.5,59.5,0,.4-.1.4-.6.5-20.1,0-39.8,0-59.4-.6,0-20,0-39.6,0-59.2,19.7,0,39.4-.1,59.5-.2Z"/>
  <path class="st29" d="M1160.5,121.1c.5,19.7.5,39.2.4,59.4,0,.5,0,.7-.4.6-20.2-.1-39.9-.2-59.6-.7,0-20,0-39.6,0-59.2,19.7,0,39.4,0,59.5,0Z"/>
  <path class="st6" d="M1100.6,121.1c.5,19.6.4,39.2.4,59.4,0,.6,0,.7-.5.7-20.1-.1-39.8-.1-59.5-.2,0,0,0,0,0-.4,0-20.1,0-39.7,0-59.4,19.7,0,39.3,0,59.5,0Z"/>
  <path class="st16" d="M1040.6,121.1c.4,19.7.4,39.3,0,59.4-20.2.5-39.9.6-59.6.7,0,0,0-.2,0-.2,0-19.8,0-39.5,0-59.9,20,0,39.6,0,59.6,0Z"/>
  <path class="st11" d="M921,180.5c-19.6.5-39.3.5-59.4.6-.5-19.7-.6-39.4-.6-59.6,0-.5,0-.4,0-.4,19.7,0,39.5,0,60,0,0,19.9,0,39.5,0,59.5Z"/>
  <path class="st50" d="M1280.9,120.5c-19.7.5-39.4.5-59.5.5-.5-19.8-.5-39.6-.5-59.7h60c0,19.6,0,39.1,0,59.2Z"/>
  <path class="st13" d="M1401.1,181.2h59.9c0,19.7,0,39.3,0,59.4,0,.5,0,.5-.5.5-20.2,0-39.8,0-59.5,0,0,0,0,0,0-.5,0-20.1,0-39.7,0-59.4Z"/>
  <path class="st8" d="M1521.4,300.8c-.4-19.6-.4-39.2-.4-59.2,19.8-.5,39.6-.5,60-.5,0,19.7,0,39.3,0,59.3-19.7.5-39.4.4-59.5.3Z"/>
  <path class="st1" d="M861,301.1c-19.7,0-39.4,0-59.6-.7-.5-20.1-.5-39.7-.5-59.3,19.7,0,39.5-.1,59.7-.2.5,0,.4-.1.5.4,0,20.2,0,39.8,0,59.6,0,0,0,.2,0,.2Z"/>
  <path class="st52" d="M800.5,241.1c.5,19.7.5,39.3.5,59.3-19.7.5-39.4.5-59.5,0-.5-20.1-.5-39.7-.5-59.3,19.7,0,39.4,0,59.5,0Z"/>
  <path class="st10" d="M740.5,241.1c.5,19.7.5,39.3.5,59.3-19.7.5-39.3.5-59.4.6-.5-19.8-.5-39.6-.5-60,19.8,0,39.4,0,59.4,0Z"/>
  <path class="st0" d="M561,300.5c-19.7.5-39.3.4-59.4.4-.5-19.7-.5-39.4-.5-59.5,0-.5,0-.4,0-.4,19.8,0,39.6,0,60,0,0,19.8,0,39.4,0,59.5Z"/>
  <path class="st39" d="M1400.6,181.1c.5,19.7.4,39.3,0,59.4-20.1.4-39.8.4-59.5.3,0-19.6,0-39.2,0-59.3,19.7-.5,39.4-.5,59.5-.5Z"/>
  <path class="st37" d="M1221.5,481c-.5-19.7-.5-39.4-.5-59.6,19.7-.5,39.4-.5,59.5-.5.5,19.7.5,39.4.4,59.6-19.7.5-39.3.4-59.5.4Z"/>
  <path class="st14" d="M1221,360.9c-19.7,0-39.4,0-59.5,0-.5,0-.5,0-.5-.5,0-20.1,0-39.8.4-59.4,20.2,0,39.9,0,59.6.4,0,20.1,0,39.8,0,59.5Z"/>
  <path class="st54" d="M1221.5,360.9c-.5-19.7-.5-39.4-.5-59.5,0-.5,0-.5.4-.5,20.2,0,39.9,0,59.6,0,0,0,0,0,0,.5,0,20.1,0,39.8,0,59.4-19.7,0-39.3,0-59.4,0Z"/>
  <path class="st49" d="M1281.4,360.9c-.4-19.7-.4-39.3,0-59.5,20.2-.5,39.9-.5,59.5-.5,0,0,0,.1,0,.1,0,18.1-.2,36.2.1,54.3,0,4.8-1.5,5.8-5.9,5.7-17.8-.2-35.5-.1-53.8-.1Z"/>
  <path class="st36" d="M1461,361c-19.7,0-39.4,0-59.5,0-.5-19.6-.5-39.2-.4-59.4,0-.6,0-.8.4-.7,20.2,0,39.9,0,59.6,0,0,0,0,0,0,.5,0,20.2,0,39.8,0,59.5,0,0,0,0,0,0Z"/>
  <path class="st19" d="M1341,240.9c19.7,0,39.4,0,59.5,0,.5,0,.5,0,.5.5,0,20.1,0,39.7,0,59.4,0,0,0,.2,0,.3-19.7,0-39.4,0-59.6-.1-.5,0-.4,0-.5-.5,0-20.1,0-39.7,0-59.3,0,0,0-.1,0-.2Z"/>
  <path class="st37" d="M921,361c-19.7,0-39.4,0-59.5,0-.5-19.7-.5-39.3-.4-59.4,0-.5,0-.6.4-.6,20.2,0,39.9,0,59.6,0,0,0,0,.1,0,.6,0,20.1,0,39.8,0,59.4,0,0,0,0,0,0Z"/>
  <path class="st28" d="M861,420.6c-19.7.5-39.4.4-59.5.5-.5-19.7-.5-39.4-.5-59.5,19.7-.5,39.4-.5,59.6-.5.5,19.7.5,39.4.4,59.6Z"/>
  <path class="st40" d="M1101,361c-19.7,0-39.4,0-59.5,0-.5,0-.4,0-.5-.5,0-20.1,0-39.8.4-59.5,20.2,0,39.9,0,59.6.5,0,20.1,0,39.8,0,59.4Z"/>
  <path class="st37" d="M1101.4,361c-.5-19.7-.4-39.3-.4-59.5,0-.5,0-.5.4-.5,20.2,0,39.9,0,59.5,0,0,0,0,.1,0,.1,0,19.6,0,39.3,0,59.4-19.7.5-39.4.5-59.6.5Z"/>
  <path class="st2" d="M1041,420.5c-19.7.5-39.4.5-59.5.5-.5,0-.5,0-.5-.5,0-20.2,0-39.8,0-59.5,0,0,0,0,.5,0,20.2,0,39.9,0,59.6,0,0,0,0,0,0,0,0,19.7,0,39.4,0,59.5Z"/>
  <path class="st46" d="M1461.4,361c-.5-19.7-.5-39.3-.5-59.5,19.7-.5,39.4-.5,59.6-.4.5,19.6.5,39.2.6,59.3-19.7.5-39.4.6-59.7.6Z"/>
  <path class="st33" d="M981,361c0,19.7,0,39.4,0,59.5-19.7.5-39.4.5-59.5.5-.5-19.7-.5-39.4-.5-59.5,0-.5,0-.5.5-.5,20.2,0,39.8,0,59.5,0Z"/>
  <path class="st4" d="M1221,180.9c19.7,0,39.4,0,59.5.2.5,19.7.5,39.3.5,59.4,0,.5,0,.5-.5.5-20.2,0-39.8,0-59.5,0,0,0,0,0,0-.4,0-20.2,0-40,0-59.7,0,0,.1,0,.1,0Z"/>
  <path class="st20" d="M1340.5,241.1c.5,19.7.5,39.3.5,59.4-19.7.5-39.4.5-59.5.6-.5,0-.5,0-.5-.5,0-20.2,0-39.8,0-59.5,0,0,0,0,0,0,19.7,0,39.4,0,59.5,0Z"/>
  <path class="st32" d="M981,181.6c19.7-.5,39.4-.6,59.6-.6.5,0,.5,0,.5.4,0,20.2,0,39.9,0,59.6,0,0,0,0-.4,0-20.2,0-39.9,0-59.6,0,0,0,0,0,0,0,0-19.6,0-39.3,0-59.3Z"/>
  <path class="st49" d="M920.9,241c19.7,0,39.4,0,59.6,0,.5,0,.4,0,.4.5,0,20.1,0,39.8,0,59.5,0,0,0,.1-.5,0-20.2,0-39.8,0-59.5,0,0,0,0,0,0-.6,0-20.2,0-39.8,0-59.5,0,0,0,0,0,0Z"/>
  <path class="st35" d="M920.5,241c.5,19.7.5,39.3.5,59.4-19.7.5-39.4.5-59.6.4-.4-19.7-.4-39.4-.3-59.6,19.7-.4,39.3-.4,59.5-.3Z"/>
  <path class="st9" d="M1401.5,300.9c-.5-19.7-.5-39.3-.5-59.4,19.7-.5,39.4-.5,59.5-.5.5,19.7.5,39.4.5,59.5-19.7.5-39.4.5-59.5.4Z"/>
  <path class="st3" d="M1220.4,180.9c.5,19.7.5,39.5,0,59.6-20.2.4-39.8.4-59.5,0,0-20.1,0-39.7,0-59.4,0,0,0-.1,0-.2,19.7,0,39.3,0,59.5,0Z"/>
  <path class="st15" d="M1160.6,181.1c.5,19.7.4,39.3.4,59.4,0,.5,0,.5-.4.5-20.2,0-39.8,0-59.6,0,0,0-.1,0,0-.4,0-20.1,0-39.8,0-59.4,0,0,0-.2,0-.3,19.7,0,39.4,0,59.6.2Z"/>
  <path class="st41" d="M1100.5,181.1c.5,19.7.4,39.4,0,59.5-20.2.4-39.8.4-59.5.4,0-19.7,0-39.4,0-59.6,19.7-.4,39.3-.4,59.5-.3Z"/>
  <path class="st53" d="M1161,241c19.7,0,39.3,0,59.4,0,.5,0,.5,0,.5.5,0,20.1,0,39.8,0,59.4,0,0,0,0,0,0-19.7,0-39.4,0-59.5,0-.5,0-.5,0-.4-.6,0-20.1,0-39.8,0-59.5,0,0,0,0,0,0Z"/>
  <path class="st51" d="M1221.4,301c-.4-19.7-.4-39.4-.4-59.5,19.7-.5,39.4-.5,59.5-.5.5,19.7.5,39.4.4,59.5-19.7.5-39.4.5-59.6.4Z"/>
  <path class="st43" d="M921,301.6c19.7-.5,39.4-.5,59.5,0,.5,20.2.5,39.8.5,59.5,0,0,0,0,0,0-19.7,0-39.4,0-59.5,0-.5-19.7-.5-39.3-.5-59.4Z"/>
  <path class="st27" d="M981.5,361c-.5-19.7-.5-39.3-.5-59.5,0-.5,0-.5.5-.5,20.2,0,39.8,0,59.5,0,0,0,0,0,0,0,0,19.7,0,39.4,0,59.5-19.7.5-39.4.5-59.6.5Z"/>
  <path class="st49" d="M1041,241c19.6,0,39.3,0,59.4,0,.5,0,.6,0,.6.5,0,20.1,0,39.8,0,59.4,0,0,0,0,0,0-19.7,0-39.4,0-59.6,0-.5,0-.5,0-.5-.5,0-20.1,0-39.8,0-59.5,0,0,0,0,0,0Z"/>
  <path class="st42" d="M1101.5,301c-.5-19.7-.5-39.4-.5-59.5,19.7-.5,39.4-.5,59.5-.4.5,19.7.5,39.3.5,59.4-19.7.5-39.4.5-59.5.5Z"/>
  <path class="st20" d="M1040.6,241c.5,19.7.5,39.4.4,59.5-19.7.5-39.4.5-59.5.4-.5-19.7-.5-39.3-.5-59.4,19.7-.5,39.4-.5,59.6-.5Z"/>
</svg>